<?xml version="1.0" encoding="UTF-8" standalone="no"?>
<!DOCTYPE svg PUBLIC "-//W3C//DTD SVG 1.1//EN" "http://www.w3.org/Graphics/SVG/1.1/DTD/svg11.dtd">
<svg version="1.1" xmlns="http://www.w3.org/2000/svg" xmlns:xlink="http://www.w3.org/1999/xlink" preserveAspectRatio="xMidYMid meet" viewBox="0 0 640 640" width="640" height="640"><defs><path d="M367.39 477.93C367.39 477.93 367.39 477.93 367.39 477.93C367.39 541.62 367.39 577.01 367.39 584.08C367.39 584.08 367.39 584.08 367.39 584.08C310.52 584.08 278.93 584.08 272.61 584.08C272.61 584.08 272.61 584.08 272.61 584.08C272.61 520.39 272.61 485.01 272.61 477.93C272.61 477.93 272.61 477.93 272.61 477.93C329.48 477.93 361.07 477.93 367.39 477.93Z" id="as7sXuOPf"></path><path d="M367.39 509.94C367.39 507.81 367.39 497.14 367.39 477.93L272.61 477.93L272.61 490.43C299.19 507.36 330.78 513.86 367.39 509.94Z" id="i1ROIJ0Pyj"></path><path d="M182.19 313.34C182.19 342.47 161.49 366.1 135.95 366.1C110.41 366.1 89.7 342.47 89.7 313.34C89.7 284.2 110.41 260.57 135.95 260.57C161.49 260.57 182.19 284.2 182.19 313.34Z" id="aQqe0uUZq"></path><path d="M550.3 313.34C550.3 342.47 529.59 366.1 504.05 366.1C478.51 366.1 457.81 342.47 457.81 313.34C457.81 284.2 478.51 260.57 504.05 260.57C529.59 260.57 550.3 284.2 550.3 313.34Z" id="cFIpnB0P6"></path><path d="M320 77.98C193 77.98 136.13 134.84 136.13 212.56C136.13 290.28 122.87 494.99 320 494.99C517.13 494.99 503.87 290.28 503.87 212.56C503.87 134.84 447 77.98 320 77.98Z" id="b3wy0cUhvP"></path><path d="M250.35 300.7C250.35 312.74 241.44 322.5 230.44 322.5C219.45 322.5 210.54 312.74 210.54 300.7C210.54 288.66 219.45 278.9 230.44 278.9C241.44 278.9 250.35 288.66 250.35 300.7Z" id="aiQ6sIZBJ"></path><path d="M221.77 285.12C218.48 285.12 215.81 287.79 215.81 291.08C215.81 294.36 218.48 297.03 221.77 297.03C225.05 297.03 227.72 294.36 227.72 291.08C227.72 287.79 225.05 285.12 221.77 285.12Z" id="a6nS2pBcZ"></path><path d="M257.72 248.69C264.03 251.97 267.79 220.62 230.71 220.62C198.6 220.62 192.92 243.84 198.6 246.68C208.02 251.38 223.13 230.69 257.72 248.69Z" id="ajfUNB8Vm"></path><path d="M431.92 300.7C431.92 312.74 423.01 322.5 412.01 322.5C401.02 322.5 392.11 312.74 392.11 300.7C392.11 288.66 401.02 278.9 412.01 278.9C423.01 278.9 431.92 288.66 431.92 300.7Z" id="bs16MDVIU"></path><path d="M403.34 285.12C400.05 285.12 397.39 287.79 397.39 291.08C397.39 294.36 400.05 297.03 403.34 297.03C406.62 297.03 409.29 294.36 409.29 291.08C409.29 287.79 406.62 285.12 403.34 285.12Z" id="daevrfEy8"></path><path d="M382.28 248.69C375.97 251.97 372.21 220.62 409.29 220.62C441.4 220.62 447.08 243.84 441.4 246.68C431.98 251.38 416.87 230.69 382.28 248.69Z" id="dbVzwZhn"></path><path d="M288.49 369.79C288.49 376.9 294.17 390.41 320 390.41C345.83 390.41 351.51 376.9 351.51 369.79C351.51 362.68 339.66 377.38 320 377.38C300.33 377.38 288.49 362.69 288.49 369.79Z" id="dBts15BR"></path><path d="M309.1 440.11C309.1 442.57 311.07 447.24 320 447.24C328.93 447.24 330.9 442.57 330.9 440.11C330.9 437.65 326.8 442.73 320 442.73C313.2 442.73 309.1 437.65 309.1 440.11Z" id="bZ0hmP3lZ"></path><path d="M270.05 415.14C270.05 418.36 279.06 431.02 320 431.02C360.94 431.02 369.95 418.36 369.95 415.14C369.95 411.93 351.17 424.62 320 424.62C288.83 424.62 270.05 411.93 270.05 415.14Z" id="b2g904KY7m"></path><path d="M320 640C181.82 640 105.05 640 89.7 640C89.7 591.66 211.01 520.58 320 520.58C320 536.5 320 576.31 320 640Z" id="c1cwu6NNa8"></path><path d="M320 640C458.18 640 534.95 640 550.3 640C550.3 591.66 428.99 520.58 320 520.58C320 536.5 320 576.31 320 640Z" id="b24qz2VStJ"></path><path d="M250.07 529.35C250.22 529.55 275.59 562.28 320 562.28C361.12 562.28 388.46 534.25 392.42 529.94C368.63 524.04 344.02 520.58 320 520.58C296.82 520.58 273.08 523.82 250.07 529.35Z" id="bNrnYUTkr"></path><path d="M320 541.91C353.52 541.91 367.39 524.71 367.39 524.71C367.39 524.71 318.22 506.82 272.61 524.71C282.09 528.15 286.47 541.91 320 541.91Z" id="b105gFheBU"></path><path d="M261.1 7.37C119.27 40.06 108.65 125.37 112.91 208.35C117.18 291.35 128.55 340.03 142 334.02C155.45 328 148.45 273.22 149.88 260.57C151.3 247.93 164.09 190.76 250.35 199.29C336.6 207.82 409.29 176.54 409.29 176.54C409.29 176.54 438.55 213.53 457.81 220.62C496.29 234.77 483.67 329.18 498.74 329.18C513.82 329.18 587.74 111.15 471.17 61.39C429.15 50.59 402.93 -25.33 261.1 7.37Z" id="b33wh3igMP"></path></defs><g><g><g><use xlink:href="#as7sXuOPf" opacity="1" fill="#fdcc9b" fill-opacity="1"></use><g><use xlink:href="#as7sXuOPf" opacity="1" fill-opacity="0" stroke="#000000" stroke-width="1" stroke-opacity="0"></use></g></g><g><use xlink:href="#i1ROIJ0Pyj" opacity="1" fill="#fcbc85" fill-opacity="1"></use><g><use xlink:href="#i1ROIJ0Pyj" opacity="1" fill-opacity="0" stroke="#000000" stroke-width="1" stroke-opacity="0"></use></g></g><g><use xlink:href="#aQqe0uUZq" opacity="1" fill="#fcbc85" fill-opacity="1"></use><g><use xlink:href="#aQqe0uUZq" opacity="1" fill-opacity="0" stroke="#000000" stroke-width="1" stroke-opacity="0"></use></g></g><g><use xlink:href="#cFIpnB0P6" opacity="1" fill="#fcbc85" fill-opacity="1"></use><g><use xlink:href="#cFIpnB0P6" opacity="1" fill-opacity="0" stroke="#000000" stroke-width="1" stroke-opacity="0"></use></g></g><g><use xlink:href="#b3wy0cUhvP" opacity="1" fill="#fdcc9b" fill-opacity="1"></use><g><use xlink:href="#b3wy0cUhvP" opacity="1" fill-opacity="0" stroke="#000000" stroke-width="1" stroke-opacity="0"></use></g></g><g><use xlink:href="#aiQ6sIZBJ" opacity="1" fill="#3b2519" fill-opacity="1"></use><g><use xlink:href="#aiQ6sIZBJ" opacity="1" fill-opacity="0" stroke="#000000" stroke-width="1" stroke-opacity="0"></use></g></g><g><use xlink:href="#a6nS2pBcZ" opacity="1" fill="#ffffff" fill-opacity="1"></use><g><use xlink:href="#a6nS2pBcZ" opacity="1" fill-opacity="0" stroke="#000000" stroke-width="1" stroke-opacity="0"></use></g></g><g><use xlink:href="#ajfUNB8Vm" opacity="1" fill="#51362a" fill-opacity="1"></use><g><use xlink:href="#ajfUNB8Vm" opacity="1" fill-opacity="0" stroke="#000000" stroke-width="1" stroke-opacity="0"></use></g></g><g><use xlink:href="#bs16MDVIU" opacity="1" fill="#3b2519" fill-opacity="1"></use><g><use xlink:href="#bs16MDVIU" opacity="1" fill-opacity="0" stroke="#000000" stroke-width="1" stroke-opacity="0"></use></g></g><g><use xlink:href="#daevrfEy8" opacity="1" fill="#ffffff" fill-opacity="1"></use><g><use xlink:href="#daevrfEy8" opacity="1" fill-opacity="0" stroke="#000000" stroke-width="1" stroke-opacity="0"></use></g></g><g><use xlink:href="#dbVzwZhn" opacity="1" fill="#51362a" fill-opacity="1"></use><g><use xlink:href="#dbVzwZhn" opacity="1" fill-opacity="0" stroke="#000000" stroke-width="1" stroke-opacity="0"></use></g></g><g><use xlink:href="#dBts15BR" opacity="1" fill="#fcbc85" fill-opacity="1"></use><g><use xlink:href="#dBts15BR" opacity="1" fill-opacity="0" stroke="#000000" stroke-width="1" stroke-opacity="0"></use></g></g><g><use xlink:href="#bZ0hmP3lZ" opacity="1" fill="#fcbc85" fill-opacity="1"></use><g><use xlink:href="#bZ0hmP3lZ" opacity="1" fill-opacity="0" stroke="#000000" stroke-width="1" stroke-opacity="0"></use></g></g><g><use xlink:href="#b2g904KY7m" opacity="1" fill="#f7945e" fill-opacity="1"></use><g><use xlink:href="#b2g904KY7m" opacity="1" fill-opacity="0" stroke="#000000" stroke-width="1" stroke-opacity="0"></use></g></g><g><use xlink:href="#c1cwu6NNa8" opacity="1" fill="#5e1ef7" fill-opacity="1"></use><g><use xlink:href="#c1cwu6NNa8" opacity="1" fill-opacity="0" stroke="#000000" stroke-width="1" stroke-opacity="0"></use></g></g><g><use xlink:href="#b24qz2VStJ" opacity="1" fill="#5e1ef7" fill-opacity="1"></use><g><use xlink:href="#b24qz2VStJ" opacity="1" fill-opacity="0" stroke="#000000" stroke-width="1" stroke-opacity="0"></use></g></g><g><use xlink:href="#bNrnYUTkr" opacity="1" fill="#2b08a5" fill-opacity="1"></use><g><use xlink:href="#bNrnYUTkr" opacity="1" fill-opacity="0" stroke="#000000" stroke-width="1" stroke-opacity="0"></use></g></g><g><use xlink:href="#b105gFheBU" opacity="1" fill="#fdcc9b" fill-opacity="1"></use><g><use xlink:href="#b105gFheBU" opacity="1" fill-opacity="0" stroke="#000000" stroke-width="1" stroke-opacity="0"></use></g></g><g><use xlink:href="#b33wh3igMP" opacity="1" fill="#51362a" fill-opacity="1"></use><g><use xlink:href="#b33wh3igMP" opacity="1" fill-opacity="0" stroke="#000000" stroke-width="1" stroke-opacity="0"></use></g></g></g></g></svg>