<svg width="863" height="826.71426" xmlns="http://www.w3.org/2000/svg">
 <title>laravel and vue</title>

 <g>
  <title>background</title>
  <rect fill="none" id="canvas_background" height="602" width="802" y="-1" x="-1"/>
 </g>
 <g>
  <title>Layer 1</title>
  <path id="svg_1" fill="#f2f2f2" d="m740.08458,309.38682c-44.91639,-176.62144 -200.11665,-304.11743 -382.28818,-309.23118c-96.30863,-2.70351 -197.65219,29.23779 -271.43777,141.01198c-131.89969,199.80845 8.10555,337.88223 105.7135,403.49213a610.75776,610.75776 0 0 1 126.24112,113.4651c65.931,78.23772 192.76719,175.45908 343.82337,23.12816c109.48571,-110.40964 107.86671,-254.21888 77.94796,-371.86619z"/>
  <path id="svg_2" fill="#3f3d56" d="m862,702.71426c0,43.35436 -189.18913,124 -427.5,124s-434.5,-75.64564 -434.5,-119s196.18913,-38 434.5,-38s427.5,-10.35435 427.5,33z"/>
  <path id="svg_3" opacity="0.1" d="m862,702.71426c0,43.35436 -189.18913,124 -427.5,124s-434.5,-75.64564 -434.5,-119s196.18913,-38 434.5,-38s427.5,-10.35435 427.5,33z"/>
  <ellipse id="svg_4" fill="#3f3d56" ry="78.5" rx="431.5" cy="707.21426" cx="431.5"/>
  <polygon id="svg_5" fill="#2f2e41" points="594.859 440.238 594.859 650.182 629.976 707.413 632.649 711.766 771.212 711.766 774.011 440.238 594.859 440.238"/>
  <polygon id="svg_6" opacity="0.1" points="594.859 440.238 594.859 650.182 629.976 707.413 632.131 440.238 594.859 440.238"/>
  <polygon id="svg_7" fill="#2f2e41" points="260.348 434.639 260.348 644.583 225.231 701.814 222.558 706.167 83.994 706.167 81.195 434.639 260.348 434.639"/>
  <polygon id="svg_8" opacity="0.1" points="260.348 434.639 260.348 644.583 225.231 701.814 223.075 434.639 260.348 434.639"/>
  <polygon id="svg_9" fill="#2f2e41" points="816 430.44 816 443.037 63 443.037 63 424.842 132.981 388.452 754.416 388.452 816 430.44"/>
  <polygon id="svg_10" opacity="0.1" points="816 430.44 816 443.037 63 443.037 63 424.842 816 430.44"/>
  <polygon id="svg_11" opacity="0.1" points="170.771 493.424 137.18 493.424 123.184 483.626 186.167 483.626 170.771 493.424"/>
  <polygon id="svg_12" opacity="0.1" points="170.771 534.013 137.18 534.013 123.184 524.215 186.167 524.215 170.771 534.013"/>
  <polygon id="svg_13" opacity="0.1" points="170.771 591.398 137.18 591.398 123.184 581.6 186.167 581.6 170.771 591.398"/>
  <polygon id="svg_14" opacity="0.1" points="170.771 648.782 137.18 648.782 123.184 638.985 186.167 638.985 170.771 648.782"/>
  <polygon id="svg_15" opacity="0.1" points="684.435 499.022 718.026 499.022 732.022 489.225 669.039 489.225 684.435 499.022"/>
  <polygon id="svg_16" opacity="0.1" points="684.435 539.611 718.026 539.611 732.022 529.814 669.039 529.814 684.435 539.611"/>
  <polygon id="svg_17" opacity="0.1" points="684.435 596.996 718.026 596.996 732.022 587.199 669.039 587.199 684.435 596.996"/>
  <polygon id="svg_18" opacity="0.1" points="684.435 654.381 718.026 654.381 732.022 644.583 669.039 644.583 684.435 654.381"/>
  <path id="svg_19" fill="#3f3d56" d="m532.51569,353.42658l-4.66869,29.80755s-22.98411,12.2103 -6.8234,12.56943s92.29556,0 92.29556,0s14.72419,0 -8.619,-12.92856l-4.66865,-31.244l-67.51582,1.79558z"/>
  <path id="svg_20" opacity="0.1" d="m517.77261,395.48013a63.5688,63.5688 0 0 1 10.07442,-6.66854l4.66865,-29.80753l67.51582,0.06351l4.66865,29.38488a61.30417,61.30417 0 0 1 10.78841,7.09889c2.99811,-0.68405 6.2745,-3.22612 -10.78841,-12.67635l-4.66865,-31.244l-67.51582,1.79564l-4.66868,29.8075s-19.31337,10.26151 -10.07439,12.246z"/>
  <rect id="svg_21" fill="#3f3d56" rx="10.6948" height="211.88475" width="304.18032" y="145.67179" x="413.82432"/>
  <rect id="svg_22" fill="#f2f2f2" height="158.734" width="283.71009" y="156.98428" x="424.05943"/>
  <circle id="svg_23" fill="#f2f2f2" r="1.79563" cy="151.9565" cx="565.91447"/>
  <path id="svg_24" fill="#3f3d56" d="m718.00463,328.28771l0,18.574a10.69346,10.69346 0 0 1 -10.6948,10.69481l-282.79071,0a10.69346,10.69346 0 0 1 -10.6948,-10.69481l0,-18.574l304.18031,0z"/>
  <circle id="svg_25" fill="#f2f2f2" r="6.82341" cy="343.01191" cx="565.91447"/>
  <polygon id="svg_26" fill="#3f3d56" points="555.281 415.196 555.281 418.788 362.071 418.788 362.071 415.915 362.337 415.196 367.099 402.268 551.331 402.268 555.281 415.196"/>
  <path id="svg_27" fill="#3f3d56" d="m629.63506,411.68051c-0.35194,1.50472 -1.68071,3.09212 -4.683,4.59324c-10.77381,5.3869 -32.68053,-1.4365 -32.68053,-1.4365s-16.879,-2.873 -16.879,-10.41468a13.46778,13.46778 0 0 1 1.4796,-0.87984c4.52961,-2.3964 19.54831,-8.3097 46.17806,0.25038a11.10594,11.10594 0 0 1 5.06187,3.31716a5.29644,5.29644 0 0 1 1.523,4.57024z"/>
  <path id="svg_28" opacity="0.1" d="m629.63506,411.68051c-13.18712,5.05294 -24.94133,5.43 -37.00441,-2.94842c-6.0836,-4.22333 -11.61057,-5.2684 -15.75848,-5.18936c4.52961,-2.3964 19.54831,-8.3097 46.17806,0.25038a11.10594,11.10594 0 0 1 5.06187,3.31716a5.29644,5.29644 0 0 1 1.52296,4.57024z"/>
  <ellipse id="svg_29" fill="#f2f2f2" ry="1.43651" rx="4.66865" cy="407.29559" cx="613.10087"/>
  <polygon id="svg_30" opacity="0.1" points="555.281 415.196 555.281 418.788 362.071 418.788 362.071 415.915 362.337 415.196 555.281 415.196"/>
  <circle id="svg_32" fill="#ffb9b9" r="38.24668" cy="155.89453" cx="394.63903"/>
  <path id="svg_33" fill="#ffb9b9" d="m366.45727,175.01786l0,60.38949l62.40247,0s-8.05193,-50.32457 -4.026,-65.42194l-58.37647,5.03245z"/>
  <path id="svg_34" fill="#d0cde1" d="m490.25572,256.54367s-59.383,-29.18825 -59.383,-31.20123s-6.03894,-15.09737 -10.06491,-15.09737s-38.24668,-11.07141 -57.37,5.03245l-2.013,13.08439l-73.47387,48.31159l20.12983,73.47388s13.08438,14.09088 9.05842,24.1558s3.01947,61.396 3.01947,61.396l158.01916,-5.03245l0,-68.44145s5.03246,-16.10387 8.05194,-21.13632s0,-20.12983 0,-20.12983l24.15579,-30.19475s-3.01947,-28.18176 -20.12983,-34.22071z"/>
  <path id="svg_35" opacity="0.1" d="m290.46717,301.33254l4.52921,-24.659s-26.16878,113.7335 -23.14931,126.81789s25.16229,33.21422 28.18176,34.22071s31.20124,-86.55827 31.20124,-86.55827l-40.7629,-49.82133z"/>
  <path id="svg_36" fill="#d0cde1" d="m305.06129,273.65403l-17.11035,3.01947s-26.16878,113.73354 -23.14931,126.81793s25.16229,33.21422 28.18176,34.22071s31.20124,-86.55827 31.20124,-86.55827l-19.12334,-77.49984z"/>
  <path id="svg_37" opacity="0.1" d="m495.79142,307.37149l8.55518,-16.60711s12.0779,113.73354 4.026,124.805s-39.90294,15.21422 -39.90294,15.21422l-0.35672,-82.64915l27.67848,-40.76296z"/>
  <path id="svg_38" fill="#d0cde1" d="m497.30116,277.67999l13.08439,13.08439s12.0779,113.73354 4.026,124.805s-39.90294,15.21422 -39.90294,15.21422l-0.35672,-82.64915l23.14927,-70.45446z"/>
  <path id="svg_39" fill="#3f3d56" d="m302.04182,450.79653s-29.18826,-11.07141 -34.22071,10.06491s12.07789,115.74652 12.07789,115.74652s11.07141,71.46089 18.11685,73.47388s38.24668,3.01947 43.27913,-6.03895s-15.09737,-101.65564 -15.09737,-101.65564l116.753,-2.013s-7.04544,80.51931 -11.0714,87.56475s-4.026,31.20124 0,31.20124s48.31159,-2.013 51.33106,-8.05193s20.12983,-141.9153 20.12983,-141.9153s14.09088,-47.3051 -2.013,-44.28562s-199.28528,-14.09086 -199.28528,-14.09086z"/>
  <path id="svg_40" fill="#2f2e41" d="m474.15186,647.06236s10.06491,-7.04544 15.09737,0s7.04544,15.09737 -15.09737,27.17527s-39.25317,9.05843 -39.25317,7.04544l0,-29.18825l39.25317,-5.03246z"/>
  <path id="svg_41" fill="#2f2e41" d="m300.02883,644.04289s-10.06491,-7.04544 -15.09737,0s-7.04546,15.09737 15.09737,27.17524s39.25317,9.05842 39.25317,7.04544l0,-29.18822l-39.25317,-5.03246z"/>
  <path id="svg_42" fill="#2f2e41" d="m394.88706,107.66922a32.34794,32.34794 0 0 0 -11.23352,1.60112a43.42778,43.42778 0 0 0 -8.00273,4.2341l-16.88535,10.50019a7.90785,7.90785 0 0 0 -4.76623,7.37l-2.11,15.80182c-0.53248,3.98775 -1.02331,8.25232 0.7618,11.85776c1.49,3.00929 4.3314,5.06856 6.66782,7.4804a27.456,27.456 0 0 1 7.23648,14.06091c1.20795,6.59754 0.43461,14.5425 5.65567,18.75287c2.827,2.27972 6.6803,2.71095 10.30576,2.92289a153.78563,153.78563 0 0 0 29.70069,-1.14315a11.81912,11.81912 0 0 0 4.48748,-1.25739c1.775,-1.04988 2.89248,-2.90316 3.93692,-4.68137c3.77061,-6.41971 7.657,-13.24892 7.61606,-20.69395c-0.02026,-3.68318 -0.96268,-7.6389 0.8058,-10.8698a42.49668,42.49668 0 0 1 3.03759,-3.945c2.18963,-3.07677 2.61589,-7.03 2.97274,-10.7897c1.13978,-12.00866 -0.05177,-21.1472 -8.90224,-29.60633c-8.2618,-7.89646 -20.01732,-11.52269 -31.28474,-11.59537z"/>
  <polygon id="svg_43" fill="#2f2e41" points="300.937 569.703 267.346 740.458 284.141 740.458 316.333 572.503 300.937 569.703"/>
  <polygon id="svg_44" fill="#2f2e41" points="408.708 583.7 429.703 779.648 443.699 779.648 431.102 578.101 408.708 583.7"/>
  <polygon id="svg_45" fill="#2f2e41" points="466.093 578.101 495.485 708.267 509.481 708.267 481.489 575.302 466.093 578.101"/>
  <polygon id="svg_46" fill="#2f2e41" points="354.123 578.101 349.924 681.674 361.121 681.674 369.519 578.101 354.123 578.101"/>
  <path id="svg_47" fill="#6c63ff" d="m277.14312,551.50821s-22.394,-149.76023 40.58922,-153.95911s152.55948,0 152.55948,0s51.78625,-4.19889 36.39034,153.95911c0,0 13.99628,46.18773 -111.97026,41.98884s-117.56878,-41.98884 -117.56878,-41.98884z"/>
  <path id="svg_48" fill="#6c63ff" d="m851,612.66507c0,26.1153 -15.52513,35.23378 -34.67635,35.23378s-34.67635,-9.11848 -34.67635,-35.23378s34.67635,-59.33808 34.67635,-59.33808s34.67635,33.22278 34.67635,59.33808z"/>
  <polygon id="svg_49" fill="#3f3d56" points="815.416 622.048 830.195 595.009 815.471 618.619 815.631 608.792 825.817 589.229 815.673 606.191 815.96 588.516 826.868 572.942 816.005 585.737 816.185 553.327 815.106 594.394 804.06 577.487 814.972 597.859 813.939 617.599 813.908 617.075 801.123 599.212 813.869 618.926 813.74 621.395 813.717 621.432 813.728 621.635 811.106 647.977 814.609 647.977 815.029 645.849 827.744 626.182 815.06 643.904 815.416 622.048"/>
  <polygon id="svg_50" fill="#2f2e41" points="838.47 704.549 797.129 704.549 786.445 644.163 846.831 644.163 838.47 704.549"/>
  <rect id="svg_51" fill="#3f3d56" height="100.82759" width="86" y="296.30047" x="145"/>
  <rect id="svg_52" fill="#f2f2f2" height="69.53627" width="59.31034" y="311.94613" x="158.34483"/>
 </g>
</svg>